<?xml version="1.0" encoding="UTF-8" standalone="no"?>
<!DOCTYPE svg PUBLIC "-//W3C//DTD SVG 1.1//EN" "http://www.w3.org/Graphics/SVG/1.1/DTD/svg11.dtd">
<svg width="100%" height="100%" viewBox="0 0 174 200" version="1.1" xmlns="http://www.w3.org/2000/svg" xmlns:xlink="http://www.w3.org/1999/xlink" xml:space="preserve" style="fill-rule:evenodd;clip-rule:evenodd;stroke-linejoin:round;stroke-miterlimit:1.41421;">
    <g transform="matrix(1.9244,0,0,1.73466,-9.62008,1.2668)">
        <path d="M89.979,16.522L80.387,16.522L80.387,22.157C80.848,22.909 81.119,23.79 81.119,24.737C81.119,27.47 78.904,29.685 76.171,29.685C73.438,29.685 71.223,27.47 71.223,24.737C71.223,23.79 71.494,22.909 71.955,22.157L71.955,16.522L28.31,16.522L28.31,22.157C28.771,22.909 29.042,23.79 29.042,24.737C29.042,27.47 26.827,29.685 24.094,29.685C21.361,29.685 19.146,27.47 19.146,24.737C19.146,23.79 19.417,22.909 19.878,22.157L19.878,16.522L10.021,16.522C7.247,16.522 4.999,18.77 4.999,21.544L4.999,89.367C4.999,92.141 7.247,94.389 10.021,94.389L89.979,94.389C92.752,94.389 95.001,92.141 95.001,89.367L95.001,21.544C95.001,18.771 92.752,16.522 89.979,16.522ZM89.612,74.798L75.925,88.44L10.653,88.44L10.653,35.369L89.612,35.369L89.612,74.798Z" style="fill:rgb(97,216,249);fill-rule:nonzero;"/>
    </g>
    <g transform="matrix(1.9244,0,0,1.73466,-9.62008,1.2668)">
        <path d="M26.822,24.954C26.822,26.324 25.712,27.434 24.342,27.434L23.846,27.434C22.476,27.434 21.366,26.324 21.366,24.954L21.366,8.091C21.366,6.721 22.476,5.611 23.846,5.611L24.342,5.611C25.712,5.611 26.822,6.721 26.822,8.091L26.822,24.954Z" style="fill:rgb(51,51,51);fill-rule:nonzero;"/>
    </g>
    <g transform="matrix(1.9244,0,0,1.73466,-9.62008,1.2668)">
        <path d="M78.909,24.954C78.909,26.324 77.799,27.434 76.429,27.434L75.933,27.434C74.563,27.434 73.453,26.324 73.453,24.954L73.453,8.091C73.453,6.721 74.563,5.611 75.933,5.611L76.429,5.611C77.799,5.611 78.909,6.721 78.909,8.091L78.909,24.954Z" style="fill:rgb(51,51,51);fill-rule:nonzero;"/>
    </g>
    <g transform="matrix(1.18077,0,0,1.06435,-69.6121,25.1476)">
        <path d="M83.629,55.719C83.629,51.699 85.369,48.399 88.849,45.819C92.329,43.239 97.549,41.949 104.509,41.949C111.469,41.949 116.824,43.239 120.574,45.819C124.324,48.399 126.199,52.269 126.199,57.429C126.199,59.109 126.049,60.624 125.749,61.974C125.449,63.324 124.774,64.734 123.724,66.204C122.674,67.674 121.654,68.979 120.664,70.119C119.674,71.259 117.979,72.759 115.579,74.619C111.979,77.499 108.199,80.364 104.239,83.214C100.279,86.064 97.969,87.729 97.309,88.209L91.819,92.169L113.419,92.169C117.559,92.169 120.499,91.269 122.239,89.469C123.979,87.669 125.209,84.849 125.929,81.009L127.459,81.009L126.559,105.939L84.259,105.939L84.259,95.499L93.349,87.129C99.529,81.489 103.909,76.464 106.489,72.054C109.069,67.644 110.359,62.784 110.359,57.474C110.359,52.164 109.789,48.534 108.649,46.584C107.509,44.634 105.589,43.659 102.889,43.659C100.189,43.659 98.299,44.349 97.219,45.729C96.139,47.109 95.599,48.429 95.599,49.689C95.599,50.949 95.779,52.059 96.139,53.019L98.839,53.019C99.319,54.279 99.559,55.794 99.559,57.564C99.559,59.334 98.809,60.864 97.309,62.154C95.809,63.444 93.829,64.089 91.369,64.089C88.909,64.089 87.004,63.294 85.654,61.704C84.304,60.114 83.629,58.119 83.629,55.719Z" style="fill:rgb(51,51,51);fill-rule:nonzero;"/>
        <path d="M146.539,105.939L146.539,104.229L154.999,104.229L154.999,89.829L130.609,89.829L130.609,88.119L155.989,42.939L171.559,42.939L171.559,87.669L180.469,87.669L180.469,79.839L182.179,79.839L182.179,96.489L180.469,96.489L180.469,89.829L171.559,89.829L171.559,104.229L177.769,104.229L177.769,105.939L146.539,105.939ZM133.489,87.669L154.999,87.669L154.999,49.779L133.489,87.669Z" style="fill:rgb(51,51,51);fill-rule:nonzero;"/>
    </g>
</svg>
